<svg width="140" height="38" viewBox="0 0 140 38" fill="none" xmlns="http://www.w3.org/2000/svg">
<g id="Logo">
<path id="Logo_2" d="M132.512 18.0888L140 38C137.793 37.683 135.587 37.2865 133.34 36.9303L129.122 25.927L124.787 36.0209C122.659 35.6647 120.568 35.5448 118.441 35.2682L126.048 17.8513L119.15 0H125.536L129.398 9.97401L133.537 0H140L132.512 18.0888ZM114.105 0H108.312V34.5166C110.203 34.6354 112.174 34.7137 114.105 34.9512V0ZM103.305 34.1201C98.0242 33.7639 92.7422 33.4481 87.3432 33.3282V0H93.2541V27.7078C96.6446 27.7874 100.034 28.064 103.305 28.2219V34.1201ZM81.0363 13.4977V19.4351H72.9572V32.9329H67.1232V0H83.6773V5.93739H72.9572V13.4977H81.0363ZM57.1905 5.93739V33.2499C55.2198 33.2499 53.21 33.2499 51.2784 33.3282V5.93739H45.1688V0H63.339V5.93739H57.1905ZM38.7839 19.7509C36.1831 19.7509 33.1082 19.7509 30.9011 19.8708V28.698C34.3696 28.4593 37.8381 28.1827 41.3457 28.064V33.7639L24.989 35.0711V0H41.3457V5.93739H30.9011V13.9323C33.1874 13.9323 36.695 13.8135 38.7839 13.8135V19.7509ZM6.03032 16.4267V37.1677C3.90239 37.4064 2.00971 37.683 0 38V0H5.63665L13.322 21.5733V0H19.2341V35.5448C17.1452 35.9021 15.0173 36.0209 12.7699 36.3367L6.03032 16.4267Z" fill="#E50914"/>
</g>
</svg>
